<svg viewBox="0 0 95.481 95.481" height="95.481" width="95.481" data-background-color="#111111" preserveAspectRatio="xMidYMid meet" id="tight-bounds" xmlns="http://www.w3.org/2000/svg" xmlns:xlink="http://www.w3.org/1999/xlink"><g><svg viewBox="0 0 95.481 95.481" height="95.481" width="95.481"><g><svg viewBox="0 0 95.481 95.481" height="95.481" width="95.481"><g id="textblocktransform"><svg viewBox="0 0 95.481 95.481" height="95.481" width="95.481" id="textblock"><g><svg viewBox="0 0 95.481 95.481" height="95.481" width="95.481"><g><svg viewBox="0 0 95.481 95.481" height="95.481" width="95.481"><g><svg xmlns="http://www.w3.org/2000/svg" xmlns:xlink="http://www.w3.org/1999/xlink" version="1.1" x="0" y="0" viewBox="0 0 32 32" style="enable-background:new 0 0 32 32;" xml:space="preserve" height="95.481" width="95.481" class="icon-icon-0" data-fill-palette-color="accent" id="icon-0"><g fill="#e86500" data-fill-palette-color="accent"><path d="M16 32C7.178 32 0 24.822 0 16S7.178 0 16 0s16 7.178 16 16S24.822 32 16 32zM16 2C8.28 2 2 8.28 2 16s6.28 14 14 14 14-6.28 14-14S23.72 2 16 2z" fill="#e86500" data-fill-palette-color="accent"/><path d="M15.994 26c-3.252 0-5.713-1.891-6.929-5.324-0.223-0.627-0.127-1.325 0.257-1.868C9.679 18.302 10.248 18 10.844 18H21.05c0.594 0 1.142 0.285 1.505 0.783 0.384 0.525 0.493 1.211 0.294 1.834C21.749 24.038 19.251 26 15.994 26z" fill="#e86500" data-fill-palette-color="accent"/><path d="M13.948 13c-0.489 0-0.917-0.359-0.988-0.857-0.141-0.973-0.983-1.708-1.96-1.708s-1.819 0.734-1.96 1.708C8.961 12.69 8.454 13.07 7.908 12.99c-0.547-0.079-0.926-0.586-0.847-1.132C7.342 9.906 9.036 8.435 11 8.435s3.658 1.471 3.939 3.422c0.079 0.546-0.3 1.054-0.847 1.132C14.044 12.997 13.996 13 13.948 13z" fill="#e86500" data-fill-palette-color="accent"/><path d="M23.999 13c-0.489 0-0.917-0.359-0.989-0.857-0.14-0.973-0.982-1.708-1.959-1.708-0.978 0-1.82 0.734-1.96 1.708-0.079 0.546-0.58 0.929-1.133 0.847-0.547-0.079-0.926-0.586-0.848-1.132 0.282-1.951 1.976-3.422 3.94-3.422 1.964 0 3.657 1.471 3.939 3.422 0.078 0.546-0.301 1.054-0.848 1.132C24.095 12.997 24.046 13 23.999 13z" fill="#e86500" data-fill-palette-color="accent"/></g></svg></g></svg></g></svg></g></svg></g></svg></g></svg></g><defs/></svg>