<svg width="430" height="430" viewBox="0 0 430 430" fill="none" xmlns="http://www.w3.org/2000/svg">
<rect width="430" height="430" fill="#181A1E"/>
<rect x="252.289" y="301.083" width="49.1411" height="66.485" rx="23.1252" transform="rotate(-49 252.289 301.083)" fill="white"/>
<path fill-rule="evenodd" clip-rule="evenodd" d="M203.768 334.945C266.6 334.945 317.536 284.009 317.536 221.177C317.536 158.344 266.6 107.409 203.768 107.409C140.936 107.409 90 158.344 90 221.177C90 284.009 140.936 334.945 203.768 334.945ZM204.118 293.439C243.789 293.439 275.949 261.279 275.949 221.607C275.949 181.936 243.789 149.776 204.118 149.776C164.447 149.776 132.286 181.936 132.286 221.607C132.286 261.279 164.447 293.439 204.118 293.439Z" fill="white"/>
<rect x="124.48" y="183.605" width="90.4281" height="19.5169" rx="9.75843" fill="white"/>
<rect x="124.48" y="183.605" width="90.4281" height="19.5169" rx="9.75843" fill="white"/>
<rect x="124.48" y="183.605" width="90.4281" height="19.5169" rx="9.75843" fill="white"/>
<rect x="223.796" y="216.841" width="87.9584" height="19.4087" rx="9.70433" fill="white"/>
<rect x="223.796" y="216.841" width="87.9584" height="19.4087" rx="9.70433" fill="white"/>
<rect x="223.796" y="216.841" width="87.9584" height="19.4087" rx="9.70433" fill="white"/>
<rect x="124.48" y="246.709" width="66.3573" height="19.5169" rx="9.75843" fill="white"/>
<rect x="124.48" y="246.709" width="66.3573" height="19.5169" rx="9.75843" fill="white"/>
<rect x="124.48" y="246.709" width="66.3573" height="19.5169" rx="9.75843" fill="white"/>
<rect x="190.76" y="216.841" width="28.9065" height="19.4087" rx="9.70433" fill="white"/>
<rect x="190.76" y="216.841" width="28.9065" height="19.4087" rx="9.70433" fill="white"/>
<rect x="190.76" y="216.841" width="28.9065" height="19.4087" rx="9.70433" fill="white"/>
<rect width="73.1682" height="22.3517" rx="10.617" transform="matrix(0.707107 -0.707107 0.757368 0.652988 308.215 108.326)" fill="white"/>
<rect x="359.997" y="51" width="22.3517" height="77.8583" rx="10.617" fill="white"/>
<rect x="303" y="73.3517" width="22.3517" height="75.6231" rx="10.617" transform="rotate(-90 303 73.3517)" fill="white"/>
</svg>
